<?xml version="1.0" standalone="no"?>
<!DOCTYPE svg PUBLIC "-//W3C//DTD SVG 20010904//EN"
 "http://www.w3.org/TR/2001/REC-SVG-20010904/DTD/svg10.dtd">
<svg version="1.0" xmlns="http://www.w3.org/2000/svg"
 width="225.000000pt" height="177.000000pt" viewBox="0 0 225.000000 177.000000"
 preserveAspectRatio="xMidYMid meet">
<metadata>
Created by potrace 1.16, written by Peter Selinger 2001-2019
</metadata>
<g transform="translate(0.000000,177.000000) scale(0.100000,-0.100000)"
fill="#ffffff" stroke="none">
<path d="M0 885 l0 -885 1125 0 1125 0 0 885 0 885 -1125 0 -1125 0 0 -885z
m1134 595 c0 -41 -4 -133 -8 -205 -7 -107 -6 -141 8 -193 34 -133 119 -202
251 -202 111 0 361 83 577 191 104 52 130 60 107 33 -9 -11 3 -8 38 10 115 58
87 20 -72 -98 -60 -45 -139 -100 -175 -122 -83 -52 -268 -137 -342 -159 -56
-16 -58 -18 -58 -50 0 -41 10 -45 106 -45 l74 0 0 -44 0 -43 -90 -7 -90 -8 0
-71 0 -72 110 3 110 4 0 -40 c0 -38 -1 -40 -37 -45 -21 -3 -87 -9 -148 -12
-60 -3 -120 -8 -132 -11 l-23 -4 0 200 c0 152 -3 202 -12 205 -7 2 -55 6 -105
8 l-93 4 0 -213 0 -214 -60 0 -60 0 0 250 0 250 -75 0 -75 0 0 55 0 55 50 0
50 0 -11 27 c-5 15 -12 61 -15 102 l-6 76 -103 -103 c-98 -99 -104 -103 -141
-100 -30 2 -43 10 -60 35 l-21 31 -51 -41 -52 -42 46 -5 46 -5 -95 -131 -94
-130 104 -150 103 -149 -52 -3 c-86 -5 -92 -1 -176 125 l-77 116 -3 -112 c-3
-124 1 -119 -82 -103 l-35 7 0 235 0 235 -48 7 c-63 9 -68 15 -21 23 138 23
262 83 332 159 32 35 74 106 132 221 68 136 91 173 114 184 21 10 30 10 36 1
4 -6 10 -70 13 -141 4 -71 11 -137 16 -146 7 -14 19 -1 64 68 30 46 82 136
117 199 82 150 95 168 128 173 66 10 67 9 66 -73z m-334 -890 l0 -300 -60 0
-60 0 0 295 0 294 58 4 c31 2 58 4 60 5 1 1 2 -133 2 -298z m-559 -467 l13
-48 14 48 c11 40 17 47 38 47 23 0 24 -2 24 -80 0 -73 -2 -80 -20 -80 -16 0
-20 7 -21 33 l-1 32 -9 -33 c-13 -45 -39 -39 -55 13 l-12 40 -1 -42 c-1 -31
-5 -43 -16 -43 -12 0 -15 16 -15 80 0 77 1 80 24 80 19 0 26 -8 37 -47z m280
-20 c12 -38 24 -74 27 -80 2 -8 -4 -13 -17 -13 -12 0 -24 7 -27 15 -4 8 -15
15 -25 15 -11 0 -22 -7 -25 -15 -4 -8 -15 -15 -26 -15 -12 0 -18 5 -16 13 3 6
15 42 27 80 17 50 27 67 41 67 14 0 24 -17 41 -67z m149 2 c0 -58 2 -65 20
-65 11 0 20 -7 20 -15 0 -11 -11 -15 -40 -15 l-40 0 0 80 c0 73 2 80 20 80 18
0 20 -7 20 -65z m160 0 c0 -63 1 -65 25 -65 16 0 25 -6 25 -15 0 -11 -11 -15
-40 -15 l-40 0 0 80 c0 64 3 80 15 80 12 0 15 -14 15 -65z m228 49 c17 -12 22
-25 22 -60 0 -62 -14 -84 -52 -84 -46 0 -68 25 -68 77 0 70 47 103 98 67z
m193 5 c16 -8 19 -19 18 -57 -1 -26 2 -57 6 -69 6 -19 4 -23 -13 -23 -13 0
-24 11 -33 32 l-13 33 -3 -32 c-3 -25 -9 -33 -24 -33 -17 0 -19 8 -19 80 l0
80 31 0 c17 0 39 -5 50 -11z m203 5 c28 -11 18 -33 -16 -36 -28 -2 -34 -8 -36
-31 -4 -37 15 -60 45 -52 18 4 23 1 23 -15 0 -30 -73 -29 -94 2 -17 23 -21 85
-8 104 17 26 57 39 86 28z m203 -68 c28 -85 28 -86 3 -86 -11 0 -20 7 -20 15
0 20 -46 20 -54 0 -6 -16 -36 -21 -36 -7 0 7 27 90 45 140 12 32 39 4 62 -62z" fill="#39a0d3"/>
<path d="M370 823 c-25 -8 -51 -16 -57 -19 -9 -2 -13 -27 -13 -76 0 -41 4 -68
9 -62 10 11 105 144 115 162 8 14 5 14 -54 -5z"/>
<path d="M470 85 c0 -8 5 -15 10 -15 6 0 10 7 10 15 0 8 -4 15 -10 15 -5 0
-10 -7 -10 -15z"/>
<path d="M1012 128 c-15 -15 -16 -74 0 -84 13 -8 38 22 38 46 0 9 -6 24 -13
33 -10 14 -15 15 -25 5z"/>
<path d="M1210 115 c0 -8 5 -15 10 -15 6 0 10 7 10 15 0 8 -4 15 -10 15 -5 0
-10 -7 -10 -15z"/>
<path d="M1607 90 c-3 -12 0 -20 8 -20 8 0 11 8 8 20 -3 11 -7 20 -8 20 -1 0
-5 -9 -8 -20z"/>
</g>
</svg>
